<?xml version="1.0" encoding="UTF-8" standalone="no"?>
<!-- Created with Inkscape (http://www.inkscape.org/) -->

<svg
   xmlns:dc="http://purl.org/dc/elements/1.1/"
   xmlns:cc="http://creativecommons.org/ns#"
   xmlns:rdf="http://www.w3.org/1999/02/22-rdf-syntax-ns#"
   xmlns:svg="http://www.w3.org/2000/svg"
   xmlns="http://www.w3.org/2000/svg"
   xmlns:xlink="http://www.w3.org/1999/xlink"
   xmlns:sodipodi="http://sodipodi.sourceforge.net/DTD/sodipodi-0.dtd"
   xmlns:inkscape="http://www.inkscape.org/namespaces/inkscape"
   width="45px"
   height="45px"
   viewBox="0 0 45 45"
   version="1.1"
   id="SVGRoot"
   inkscape:export-filename="D:\Users\david.chamorro\ExT.png"
   inkscape:export-xdpi="96"
   inkscape:export-ydpi="96"
   sodipodi:docname="Ext.svg"
   inkscape:version="0.92.3 (2405546, 2018-03-11)">
  <sodipodi:namedview
     id="base"
     pagecolor="#ffffff"
     bordercolor="#666666"
     borderopacity="1.0"
     inkscape:pageopacity="0.0"
     inkscape:pageshadow="2"
     inkscape:zoom="11.377778"
     inkscape:cx="27.880835"
     inkscape:cy="27.492381"
     inkscape:document-units="px"
     inkscape:current-layer="layer1"
     showgrid="false"
     inkscape:window-width="1920"
     inkscape:window-height="1017"
     inkscape:window-x="-8"
     inkscape:window-y="-8"
     inkscape:window-maximized="1"
     inkscape:grid-bbox="true" />
  <defs
     id="defs3729">
    <linearGradient
       inkscape:collect="always"
       id="linearGradient9033">
      <stop
         style="stop-color:#00ea17;stop-opacity:1"
         offset="0"
         id="stop9029" />
      <stop
         style="stop-color:#0eb320;stop-opacity:1"
         offset="1"
         id="stop9031" />
    </linearGradient>
    <marker
       inkscape:stockid="TriangleOutM"
       orient="auto"
       refY="0.0"
       refX="0.0"
       id="TriangleOutM"
       style="overflow:visible"
       inkscape:isstock="true">
      <path
         id="path4753"
         d="M 5.77,0.0 L -2.88,5.0 L -2.88,-5.0 L 5.77,0.0 z "
         style="fill-rule:evenodd;stroke:#000000;stroke-width:1pt;stroke-opacity:1;fill:#ffffff;fill-opacity:1"
         transform="scale(0.4)" />
    </marker>
    <marker
       inkscape:stockid="Arrow1Lend"
       orient="auto"
       refY="0.0"
       refX="0.0"
       id="marker4932"
       style="overflow:visible;"
       inkscape:isstock="true">
      <path
         id="path4930"
         d="M 0.0,0.0 L 5.0,-5.0 L -12.5,0.0 L 5.0,5.0 L 0.0,0.0 z "
         style="fill-rule:evenodd;stroke:#000000;stroke-width:1pt;stroke-opacity:1;fill:#000000;fill-opacity:1"
         transform="scale(0.8) rotate(180) translate(12.5,0)" />
    </marker>
    <marker
       inkscape:stockid="Arrow1Lend"
       orient="auto"
       refY="0.0"
       refX="0.0"
       id="Arrow1Lend"
       style="overflow:visible;"
       inkscape:isstock="true">
      <path
         id="path4611"
         d="M 0.0,0.0 L 5.0,-5.0 L -12.5,0.0 L 5.0,5.0 L 0.0,0.0 z "
         style="fill-rule:evenodd;stroke:#000000;stroke-width:1pt;stroke-opacity:1;fill:#000000;fill-opacity:1"
         transform="scale(0.8) rotate(180) translate(12.5,0)" />
    </marker>
    <linearGradient
       inkscape:collect="always"
       id="linearGradient4564-8">
      <stop
         style="stop-color:#ff000f;stop-opacity:0"
         offset="0"
         id="stop4560" />
      <stop
         id="stop4573"
         offset="0.17960009"
         style="stop-color:#5047d4;stop-opacity:0.13725491" />
      <stop
         style="stop-color:#1100ff;stop-opacity:1"
         offset="1"
         id="stop4562" />
    </linearGradient>
    <radialGradient
       inkscape:collect="always"
       xlink:href="#linearGradient4564-8"
       id="radialGradient4566"
       cx="22.5"
       cy="22.763672"
       fx="22.5"
       fy="22.763672"
       r="23.042492"
       gradientTransform="matrix(0.96209093,0,0,0.93874009,1.2045167,0.95504741)"
       gradientUnits="userSpaceOnUse" />
    <radialGradient
       inkscape:collect="always"
       xlink:href="#linearGradient9033"
       id="radialGradient9039"
       cx="22.675781"
       cy="22.5"
       fx="22.675781"
       fy="22.5"
       r="22.339424"
       gradientUnits="userSpaceOnUse"
       gradientTransform="translate(-0.17578125)" />
  </defs>
  <metadata
     id="metadata3732">
    <rdf:RDF>
      <cc:Work
         rdf:about="">
        <dc:format>image/svg+xml</dc:format>
        <dc:type
           rdf:resource="http://purl.org/dc/dcmitype/StillImage" />
        <dc:title></dc:title>
      </cc:Work>
    </rdf:RDF>
  </metadata>
  <g
     id="layer1"
     inkscape:groupmode="layer"
     inkscape:label="Capa 1">
    <circle
       id="path3745"
       cx="22.5"
       cy="22.5"
       style="fill:url(#radialGradient9039);fill-opacity:1;fill-rule:nonzero;stroke:#000000;stroke-width:1.05400002;stroke-miterlimit:4;stroke-dasharray:none;stroke-opacity:1"
       r="21.812424"
       inkscape:export-xdpi="96"
       inkscape:export-ydpi="96" />
    <path
       style="fill:#000000;stroke-width:0.140625"
       d="M 20.540167,38.207029 C 16.237981,37.652834 12.393147,35.378342 9.7499971,31.823876 5.967905,26.737775 5.7120981,19.68994 9.1086111,14.152824 c 0.8919199,-1.45404 3.2546429,-3.87045 4.7277229,-4.8351544 3.990544,-2.6133525 8.929599,-3.2548781 13.664771,-1.77489 4.007291,1.252485 7.821734,4.7611694 9.493093,8.7321384 2.578224,6.125591 1.188294,13.035723 -3.535945,17.57919 -2.280718,2.19345 -4.749252,3.506578 -7.797322,4.147759 -1.261634,0.265394 -3.848594,0.36904 -5.120764,0.205162 z m 5.189664,-3.154152 c 4.562794,-1.158419 8.10974,-4.708645 9.319786,-9.328402 0.478714,-1.827654 0.501407,-4.275913 0.05697,-6.147019 C 33.849115,14.283375 29.335058,10.27478 23.933953,9.6558839 19.99648,9.2046971 16.137707,10.584836 13.29798,13.459965 10.542433,16.24987 9.2070941,20.028503 9.6315121,23.835036 c 0.4683849,4.200845 2.6560109,7.634922 6.2558419,9.820254 1.325664,0.804765 3.414375,1.539962 4.934063,1.736722 1.391661,0.180184 3.413005,0.04052 4.908414,-0.339135 z m 0.01346,-7.371961 c -0.232032,-0.144474 -1.355274,-1.212748 -2.496094,-2.373941 l -2.074219,-2.11126 v -4.930194 -4.930195 l 0.339387,-0.39456 c 0.281813,-0.327622 0.450867,-0.39456 0.996551,-0.39456 0.545682,0 0.714737,0.06694 0.996549,0.39456 l 0.339388,0.39456 v 4.248023 4.248017 l 1.912946,1.896485 c 1.052121,1.043067 1.995585,2.086341 2.096588,2.318394 0.564886,1.297803 -0.868975,2.408072 -2.111096,1.634671 z"
       id="path9074"
       inkscape:connector-curvature="0" />
  </g>
</svg>
